<?xml version="1.0" encoding="UTF-8"?>
<svg id="Layer_2" xmlns="http://www.w3.org/2000/svg" xmlns:xlink="http://www.w3.org/1999/xlink" viewBox="0 0 95.14 95.14">
  <defs>
    <style>
      .cls-1 {
        fill: url(#radial-gradient);
        stroke-width: .25px;
      }

      .cls-1, .cls-2 {
        stroke: #5e0f2a;
        stroke-miterlimit: 10;
      }

      .cls-2 {  
        fill: #aa1b4c;
        stroke-width: .5px;
      }
    </style>
    <radialGradient id="radial-gradient" cx="47.57" cy="47.57" fx="47.57" fy="47.57" r="47.44" gradientUnits="userSpaceOnUse">
      <stop offset=".12" stop-color="#3d0e0f"/>
      <stop offset=".72" stop-color="#220e0f"/>
    </radialGradient>
  </defs>
  <g id="Layer_1-2" data-name="Layer_1">
    <g>
      <rect class="cls-1" x=".12" y=".12" width="94.89" height="94.89" rx="3.44" ry="3.44"/>
      <path class="cls-2" d="M46.65,56.54c-1.07-5.08,17.72-32.5,24.06-27.59,3.73,2.89,13.43,1.08,20.76-.89,1.94-.52,1.95-3.27.02-3.81-5.65-1.59-8.69-5.23-8.12-11.69.01-.12-.07-.22-.19-.22-1.09,0-6.2,0-8.06,0-.44,0-.86.15-1.21.42-2.44,1.95-12.92,10.04-21.16,12.46-.72.21-1.23.83-1.36,1.56-2.25,12.91-8.11,23.65-18,31.98-.95.8-2.39.55-3.01-.52L7.12,17.95c-.97-1.69-3.54-1.11-3.7.84l-1.21,15.28c-.07.88.45,1.7,1.27,2,10.01,3.72,18.71,16.32,26.98,40.04.49,1.41,2.31,1.8,3.32.7,2.96-3.19,7.88-8.5,8.85-9.55.09-.09.23-.07.3.04,2.58,4.04,7.03,6.72,13.7,7.77v.06c5.56-3.16,11.69-3.26,18.32-.72.98.37,2.14-.12,2.54-1.09,2.35-5.65,2.64-8.96,13.39-11.08-33.48,5.72-45.22,5.58-44.24-5.72Z"/>
    </g>
  </g>
</svg>